<?xml version="1.0" standalone="no"?>
<!DOCTYPE svg PUBLIC "-//W3C//DTD SVG 1.1//EN" "http://www.w3.org/Graphics/SVG/1.1/DTD/svg11.dtd" >
<svg xmlns="http://www.w3.org/2000/svg">
<metadata></metadata>
<defs>
<font id="museosanscond-100uploadedfile" horiz-adv-x="1316" >
<font-face units-per-em="2048" ascent="1577" descent="-471" />
<missing-glyph horiz-adv-x="405" />
<glyph unicode="&#xfb01;" horiz-adv-x="862" d="M68 946v78h98v41q0 119 27.5 201t71.5 116.5t80 48t73 13.5q31 0 51 -4v-78q-25 4 -35 4q-29 0 -55.5 -10t-58 -38t-50 -92.5t-18.5 -158.5v-43h469v-1024h-84v946h-385v-946h-86v946h-98zM629 1284v150h100v-150h-100z" />
<glyph unicode="&#xfb02;" horiz-adv-x="911" d="M68 940v78h98v47q0 117 26.5 197.5t70.5 116.5t82 50.5t77 14.5q33 0 51 -4v-78q-20 4 -33 4q-188 0 -188 -299v-49h211v-78h-211v-940h-86v940h-98zM659 207v1227h84v-1201q0 -164 93 -163q18 0 24 2v-76q-16 -4 -33 -4q-27 0 -51 7t-53 27.5t-46.5 66.5t-17.5 114z" />
<glyph unicode="&#xfb03;" horiz-adv-x="1392" d="M68 946v78h98v41q0 119 27.5 201t71.5 116.5t80 48t73 13.5q31 0 51 -4v-78q-25 4 -35 4q-29 0 -55.5 -10t-58 -38t-50 -92.5t-18.5 -158.5v-43h426v41q0 119 27.5 201t71.5 116.5t80 48t71 13.5q33 0 51 -4v-78q-20 4 -33 4q-29 0 -55.5 -10t-58 -38t-50 -92.5 t-18.5 -158.5v-43h487v-1024h-84v946h-403v-946h-86v946h-426v-946h-86v946h-98zM1159 1284v150h101v-150h-101z" />
<glyph unicode="&#xfb04;" horiz-adv-x="1423" d="M68 946v78h98v41q0 119 27.5 201t71.5 116.5t80 48t73 13.5q31 0 51 -4v-78q-25 4 -35 4q-29 0 -55.5 -10t-58 -38t-50 -92.5t-18.5 -158.5v-43h426v41q0 119 27.5 201t71.5 116.5t80 48t71 13.5q33 0 51 -4v-78q-20 4 -33 4q-29 0 -55.5 -10t-58 -38t-50 -92.5 t-18.5 -158.5v-43h211v-78h-211v-946h-86v946h-426v-946h-86v946h-98zM1171 207v1227h84v-1201q0 -164 93 -163q18 0 24 2v-76q-16 -4 -33 -4q-27 0 -51 7t-53 27.5t-46.5 66.5t-17.5 114z" />
<glyph horiz-adv-x="2048" />
<glyph horiz-adv-x="2048" />
<glyph unicode="&#xd;" horiz-adv-x="681" />
<glyph unicode=" "  horiz-adv-x="405" />
<glyph unicode="&#x09;" horiz-adv-x="405" />
<glyph unicode="&#xa0;" horiz-adv-x="405" />
<glyph unicode="!" horiz-adv-x="417" d="M160 0v121h100v-121h-100zM166 1434h86l-2 -1076h-82z" />
<glyph unicode="&#x22;" horiz-adv-x="524" d="M135 1143v309h78v-309h-78zM309 1143v309h80v-309h-80z" />
<glyph unicode="#" horiz-adv-x="1161" d="M84 408l12 81h234l59 453h-233l14 82h231l56 410h80l-56 -410h287l55 410h80l-53 -410h229l-14 -82h-227l-60 -453h228l-13 -81h-229l-53 -408h-80l55 408h-289l-53 -408h-80l55 408h-235zM412 489h284l60 453h-285z" />
<glyph unicode="$" horiz-adv-x="882" d="M96 127l45 68q135 -113 285 -113q119 0 195.5 74.5t76.5 197.5q0 86 -43 153.5t-106.5 107.5t-139 87.5t-139 91.5t-106.5 118.5t-43 168.5q0 131 76.5 225.5t214.5 116.5v226h75v-219q150 4 275 -78l-35 -82q-113 82 -244 82q-127 0 -199.5 -79t-72.5 -194 q0 -80 43 -142.5t106.5 -101t139 -84.5t139 -91.5t106.5 -123t43 -176.5q0 -141 -80.5 -237t-220.5 -117v-219h-75v217q-183 0 -316 123z" />
<glyph unicode="%" horiz-adv-x="1132" d="M98 0l842 1434h94l-839 -1434h-97zM98 1190q0 115 58.5 191.5t155 76.5t154.5 -76.5t58 -191.5q0 -113 -58 -189.5t-154.5 -76.5t-155 76.5t-58.5 189.5zM184 1190q0 -186 127 -186q63 0 95 52t32 134t-31.5 135t-95.5 53q-127 0 -127 -188zM608 242q0 115 58.5 191.5 t155 76.5t155.5 -78t59 -190.5t-59 -189.5t-155.5 -77t-155 77t-58.5 190zM694 242q0 -82 32 -134.5t95.5 -52.5t96 52.5t32.5 134.5t-32.5 135t-96 53t-95.5 -53t-32 -135z" />
<glyph unicode="&#x26;" horiz-adv-x="1052" d="M102 385q0 141 61.5 247.5t166.5 141.5v8q-88 43 -134 128t-46 194q0 168 98 261t235 93q74 0 129 -20l-22 -80q-59 18 -109 18q-102 0 -171.5 -74.5t-69.5 -193.5q0 -111 62.5 -202t195.5 -91h247v209h84v-209h154v-80h-154v-284q0 -252 -101 -364t-255 -112 q-164 0 -267.5 110t-103.5 300zM193 393q0 -152 75.5 -243t204.5 -91q272 0 272 410v266h-247q-139 0 -222 -93t-83 -249z" />
<glyph unicode="'" horiz-adv-x="348" d="M135 1143v309h78v-309h-78z" />
<glyph unicode="(" horiz-adv-x="440" d="M100 687q0 428 176 798h84q-180 -389 -180 -801q0 -473 180 -878h-84q-176 395 -176 881z" />
<glyph unicode=")" horiz-adv-x="440" d="M80 -195q176 397 176 879q0 420 -176 801h82q176 -379 176 -799q0 -485 -176 -881h-82z" />
<glyph unicode="*" horiz-adv-x="819" d="M104 1124l31 84l238 -110l-8 336h90l-11 -336l240 108l33 -82l-248 -98v-4l166 -277l-72 -43l-151 275h-4l-154 -272l-74 45l170 272v4z" />
<glyph unicode="+" horiz-adv-x="964" d="M74 539v82h368v538h82v-538h369v-82h-369v-539h-82v539h-368z" />
<glyph unicode="," horiz-adv-x="417" d="M84 -193l86 318h96l-106 -318h-76z" />
<glyph unicode="-" horiz-adv-x="694" d="M127 539v82h440v-82h-440z" />
<glyph unicode="." horiz-adv-x="356" d="M127 0v119h104v-119h-104z" />
<glyph unicode="/" horiz-adv-x="634" d="M78 -86l399 1602h84l-401 -1602h-82z" />
<glyph unicode="0" horiz-adv-x="991" d="M119 717q0 166 16 292t57 232.5t117 161.5t186 55q90 0 157 -38t109 -102.5t67.5 -161.5t34.5 -202.5t9 -236.5q0 -168 -16.5 -293t-56 -231.5t-116.5 -162t-187.5 -55.5t-186.5 55.5t-117 161t-57 231.5t-16 294zM209 717q0 -154 11 -262.5t40 -204.5t88 -144.5 t147 -48.5t146.5 48.5t88.5 143.5t41 204.5t11 263.5q0 152 -11 261t-41 204.5t-88.5 144.5t-146.5 49q-72 0 -124 -33.5t-82.5 -90t-49 -144.5t-24.5 -179t-6 -212z" />
<glyph unicode="1" horiz-adv-x="737" d="M96 0v80h252v1157l2 72h-4q-10 -27 -56 -88l-122 -156l-62 55l244 314h84v-1354h241v-80h-579z" />
<glyph unicode="2" horiz-adv-x="909" d="M102 1284q47 82 141.5 128t194.5 46q162 0 254 -103.5t92 -275.5q0 -133 -60 -245.5t-145 -193.5t-170 -160t-145.5 -180t-60.5 -220h598v-80h-680q-6 41 -6 78q0 96 31.5 180t83 148.5t112.5 124t123.5 119t114 120.5t83 140t31.5 169q0 137 -69.5 217t-190.5 80 q-78 0 -151.5 -35.5t-116.5 -101.5z" />
<glyph unicode="3" horiz-adv-x="897" d="M90 100l49 66q113 -109 260 -109q133 0 218 95.5t85 259.5q0 166 -90 255t-254 89h-96l-20 61l376 471l54 66v4q-33 -4 -88 -4h-441v80h639v-64l-428 -534q195 0 316.5 -104.5t121.5 -313.5q0 -199 -109.5 -321t-281.5 -122q-194 0 -311 125z" />
<glyph unicode="4" horiz-adv-x="952" d="M68 410v61l561 963h86v-945h164v-79h-164v-410h-84v410h-563zM174 489h457v674l4 129h-4q-20 -51 -47 -98l-410 -700v-5z" />
<glyph unicode="5" horiz-adv-x="892" d="M102 100l49 68q39 -47 107 -79t141 -32q135 0 222.5 105.5t87.5 275.5q0 174 -92.5 272.5t-229.5 98.5q-100 0 -178 -45l-60 22l60 648h524v-80h-450l-35 -404l-11 -88h5q61 27 157 27q168 0 284 -123t116 -328q0 -203 -114 -333t-284 -130q-180 0 -299 125z" />
<glyph unicode="6" horiz-adv-x="952" d="M111 655q0 141 21.5 270.5t71.5 255.5t148.5 201.5t235.5 75.5q121 0 201 -47l-33 -78q-63 43 -170 43q-344 0 -387 -637h4q113 168 303 168q164 0 259 -122.5t95 -338.5q0 -223 -92 -347t-258 -124q-199 0 -299 186.5t-100 493.5zM207 526q0 -61 15.5 -134t47 -151.5 t96 -131t150.5 -52.5q125 0 189.5 106.5t64.5 283t-70.5 277.5t-199.5 101q-121 0 -207 -88t-86 -211z" />
<glyph unicode="7" horiz-adv-x="833" d="M77 1354v80h709v-62l-518 -1372h-90l458 1219l60 135v4q-29 -4 -84 -4h-535z" />
<glyph unicode="8" horiz-adv-x="950" d="M96 369q0 117 52.5 217t99.5 143t92 72q-197 135 -196 327q0 133 82.5 231.5t250.5 98.5q178 0 263.5 -97t85.5 -245q0 -98 -43 -195.5t-79 -140.5t-71 -73q213 -145 213 -345q0 -160 -105.5 -273.5t-273.5 -113.5q-166 0 -268.5 111t-102.5 283zM187 371 q0 -143 76.5 -228.5t205.5 -85.5q135 0 212 89t77 208q0 43 -9 81t-33 73t-42 57.5t-60 54t-61.5 45t-73 46t-69.5 43.5q-27 -14 -56.5 -38t-71.5 -69t-68.5 -117.5t-26.5 -158.5zM234 1139q0 -29 6 -57.5t12 -50t24.5 -46t28 -40t37 -39t37.5 -34t46 -34t45 -29.5t50 -30.5 t50 -28.5q166 156 165 368q0 117 -62 187.5t-196 70.5q-127 0 -185 -66.5t-58 -170.5z" />
<glyph unicode="9" horiz-adv-x="948" d="M101 987q0 223 92 347t254 124q184 0 287.5 -189.5t103.5 -490.5q0 -139 -23.5 -270t-76 -256t-152.5 -201t-238 -76q-112 1 -200 48l32 77q68 -43 170 -43q100 0 177 55.5t122.5 151.5t69 201.5t31.5 228.5h-4q-113 -168 -305 -168q-158 0 -249 123t-91 338zM189 987 q0 -176 67.5 -277.5t190.5 -101.5t209 88t86 211q0 84 -26 185.5t-98.5 192.5t-174.5 91q-121 0 -187.5 -107.5t-66.5 -281.5z" />
<glyph unicode=":" horiz-adv-x="358" d="M127 0v121h104v-121h-104zM127 903v121h104v-121h-104z" />
<glyph unicode=";" horiz-adv-x="462" d="M127 -193l74 318h96l-94 -318h-76zM201 903v121h104v-121h-104z" />
<glyph unicode="&#x3c;" horiz-adv-x="964" d="M113 547v65l700 408v-98l-588 -340v-4l588 -340v-99z" />
<glyph unicode="=" horiz-adv-x="964" d="M119 375v82h727v-82h-727zM119 702v82h727v-82h-727z" />
<glyph unicode="&#x3e;" horiz-adv-x="964" d="M152 139v99l589 340v4l-589 340v98l702 -408v-65z" />
<glyph unicode="?" horiz-adv-x="706" d="M78 1382q82 76 225 76q152 0 237 -99t85 -259q0 -88 -30 -161t-72 -123l-84 -100t-71.5 -121t-29.5 -159v-78h-82v91q0 92 28.5 166.5t69.5 127t82 101.5t70 112.5t29 137.5q0 119 -62.5 199.5t-175.5 80.5q-106 0 -182 -59zM246 0v121h102v-121h-102z" />
<glyph unicode="@" horiz-adv-x="1226" d="M106 516q0 315 153 522t405 207q170 0 270 -102t100 -260v-707h111v-80h-397q-152 0 -242 114t-90 284t90 285.5t242 115.5h198q0 119 -76.5 194.5t-210.5 75.5q-211 0 -337.5 -183t-126.5 -466q0 -297 137 -489.5t340 -192.5v-84q-240 0 -403 217t-163 549zM504 494 q0 -135 67.5 -226.5t184.5 -91.5h190v639h-186q-119 0 -187.5 -92t-68.5 -229z" />
<glyph unicode="A" horiz-adv-x="995" d="M43 0l408 1434h92l409 -1434h-90l-141 498h-449l-139 -498h-90zM295 578h405l-161 581l-39 172h-4q-20 -109 -39 -172z" />
<glyph unicode="B" horiz-adv-x="968" d="M168 0v1434h315q150 0 248 -97.5t98 -259.5q0 -211 -163 -315v-4q84 -31 146 -129.5t62 -239.5q0 -180 -107.5 -284.5t-303.5 -104.5h-295zM254 80h205q327 0 327 303q0 154 -75.5 243t-184.5 89h-272v-635zM254 795h262q92 0 157.5 78.5t65.5 203.5q0 127 -71.5 202 t-188.5 75h-225v-559z" />
<glyph unicode="C" horiz-adv-x="1114" d="M96 727.5q0 321.5 161 526t435 204.5q205 0 334 -117l-39 -75q-57 49 -140 79.5t-163 30.5q-229 0 -363.5 -182t-134.5 -467q0 -287 135.5 -478.5t358.5 -191.5q195 0 338 121l33 -74q-66 -61 -167.5 -95t-199.5 -34q-266 0 -427 215.5t-161 537z" />
<glyph unicode="D" horiz-adv-x="1169" d="M168 0v1434h350q252 0 402.5 -190.5t150.5 -526.5q0 -338 -150.5 -527.5t-402.5 -189.5h-350zM254 82h254q217 0 345 166t128 469q0 301 -128 468t-345 167h-254v-1270z" />
<glyph unicode="E" horiz-adv-x="876" d="M168 0v1434h612v-80h-526v-590h432v-80h-432v-604h555v-80h-641z" />
<glyph unicode="F" horiz-adv-x="798" d="M168 0v1434h567v-80h-481v-600h416v-80h-416v-674h-86z" />
<glyph unicode="G" horiz-adv-x="1212" d="M96 721q0 340 165 538.5t433 198.5q199 0 350 -125l-38 -71q-128 114 -321 114h-3q-221 0 -358.5 -175t-137.5 -480q0 -307 140.5 -485.5t347.5 -178.5q109 0 201 45t145 129v340h-193v82h277v-653h-82v66l4 59h-4q-49 -61 -144.5 -105.5t-205.5 -44.5q-242 0 -409 203 t-167 543z" />
<glyph unicode="H" horiz-adv-x="1181" d="M168 0v1434h86v-674h676v674h86v-1434h-86v680h-676v-680h-86z" />
<glyph unicode="I" horiz-adv-x="419" d="M168 0v1434h86v-1434h-86z" />
<glyph unicode="J" horiz-adv-x="821" d="M59 379v57h86v-57q0 -178 63.5 -250t153.5 -72q215 0 216 322v975h-267v80h353v-1055q0 -217 -87.5 -310.5t-214.5 -93.5q-131 0 -217 93.5t-86 310.5z" />
<glyph unicode="K" horiz-adv-x="917" d="M168 0v1434h86v-639h192l320 639h92l-336 -676v-4l359 -754h-95l-340 713h-192v-713h-86z" />
<glyph unicode="L" horiz-adv-x="808" d="M168 0v1434h86v-1354h520v-80h-606z" />
<glyph unicode="M" horiz-adv-x="1329" d="M127 0l88 1434h90l305 -877l54 -180h4q31 111 53 180l303 877h90l88 -1434h-86l-63 1094l-4 186h-5q-31 -137 -57 -207l-278 -797h-88l-277 797l-57 211h-4q-2 -121 -7 -190l-65 -1094h-84z" />
<glyph unicode="N" horiz-adv-x="1189" d="M168 0v1434h84l604 -1106q16 -29 37.5 -73t34.5 -73l12 -28h4q-8 109 -8 180v1100h86v-1434h-84l-608 1114l-80 176h-4q8 -109 8 -180v-1110h-86z" />
<glyph unicode="O" d="M98 727q0 334 161 532.5t398 198.5q242 0 403 -198.5t161 -532.5q0 -342 -161 -547t-403 -205q-238 0 -398.5 205t-160.5 547zM186 727q0 -307 135.5 -488.5t336 -181.5t336.5 181.5t136 488.5q0 301 -136 475t-336.5 174t-336 -174t-135.5 -475z" />
<glyph unicode="P" horiz-adv-x="948" d="M168 0v1434h319q174 0 288 -114t114 -304.5t-113.5 -306t-288.5 -115.5h-233v-594h-86zM254 674h225q143 0 231.5 92t88.5 250t-88 248t-232 90h-225v-680z" />
<glyph unicode="Q" d="M96 727q0 334 161 532.5t400.5 198.5t401.5 -198.5t162 -532.5t-164 -545l160 -157l-54 -58l-157 158q-145 -150 -349 -150q-238 0 -399.5 205t-161.5 547zM186 727q0 -309 134.5 -489.5t336.5 -180.5q170 0 293 127l-180 183l55 57l172 -182q133 186 133 485 q0 301 -135 475t-337.5 174t-337 -174t-134.5 -475z" />
<glyph unicode="R" horiz-adv-x="976" d="M168 0v1434h340q104 0 188 -48q78 -45 124 -135t46 -211q0 -152 -69.5 -247t-159.5 -136v-4q14 -27 27 -55l247 -598h-94l-260 635h-303v-635h-86zM254 717h258q102 0 184 90t82 237q0 188 -116 263q-68 45 -162 45h-246v-635z" />
<glyph unicode="S" horiz-adv-x="839" d="M76 104l45 72q127 -117 278 -117q115 0 189 76t74 205q0 106 -57.5 184t-139.5 129.5t-164 103.5t-139.5 137t-57.5 202q0 156 97.5 259t269.5 103q145 0 270 -84l-34 -80q-102 80 -240 80q-129 0 -200.5 -81t-71.5 -197q0 -98 57 -172t139 -123t164 -102.5t139.5 -141.5 t57.5 -209q0 -164 -96.5 -268.5t-260.5 -104.5q-180 0 -319 129z" />
<glyph unicode="T" horiz-adv-x="962" d="M33 1354v80h897v-80h-408v-1354h-86v1354h-403z" />
<glyph unicode="U" horiz-adv-x="1150" d="M158 444v990h86v-983q0 -190 89 -292t242.5 -102t242.5 102.5t89 295.5v979h86v-990q0 -221 -113.5 -345t-301.5 -124q-190 0 -305 124t-115 345z" />
<glyph unicode="V" horiz-adv-x="999" d="M41 1434h90l324 -1160l41 -168h4q23 100 41 168l327 1160h88l-409 -1434h-98z" />
<glyph unicode="W" horiz-adv-x="1441" d="M61 1434h86l226 -1168l26 -153h4q8 82 25 153l262 1168h96l230 -1168l20 -153h4q14 84 29 153l225 1168h86l-284 -1434h-107l-217 1081l-35 228h-2q-20 -133 -39 -226l-243 -1083h-107z" />
<glyph unicode="X" horiz-adv-x="890" d="M37 0l354 758l-323 676h98l213 -457l67 -158h5q33 88 65 158l213 457h96l-323 -676l356 -758h-92l-252 545l-70 151h-4q-29 -82 -61 -153l-250 -543h-92z" />
<glyph unicode="Y" horiz-adv-x="909" d="M37 1434h96l256 -566l64 -157h4q35 88 67 157l254 566h94l-374 -811v-623h-86v623z" />
<glyph unicode="Z" horiz-adv-x="901" d="M55 0v70l602 1151l78 133v4q-29 -4 -84 -4h-565v80h743v-70l-602 -1151q-16 -33 -36.5 -66.5t-30.5 -50.5l-13 -16v-4q31 4 84 4h603v-80h-779z" />
<glyph unicode="[" horiz-adv-x="442" d="M158 -194v1679h188v-80h-104v-1519h104v-80h-188z" />
<glyph unicode="\" horiz-adv-x="634" d="M74 1516h84l401 -1602h-84z" />
<glyph unicode="]" horiz-adv-x="442" d="M94 -114h107v1519h-107v80h189v-1679h-189v80z" />
<glyph unicode="^" horiz-adv-x="948" d="M117 516l313 918h59l312 -918h-86l-256 772l-254 -772h-88z" />
<glyph unicode="_" horiz-adv-x="935" d="M70 0h796v-82h-796v82z" />
<glyph unicode="`" horiz-adv-x="800" d="M305 1763h105l108 -227h-84z" />
<glyph unicode="a" horiz-adv-x="823" d="M70 283q0 80 24.5 141t69.5 97t90 58.5t107.5 32t98.5 11.5t85 2h59v34q0 172 -52 241t-153 69q-131 0 -233 -76l-31 70q113 86 264 86q289 0 289 -387v-662h-80v100l2 93h-4q-90 -211 -270 -211q-104 0 -185 75.5t-81 225.5zM158 289q0 -100 53 -165t131 -65 q121 0 191.5 128t70.5 268v90h-57q-43 0 -74 -2t-82 -8.5t-87 -23.5t-72.5 -44t-55 -73t-18.5 -105z" />
<glyph unicode="b" horiz-adv-x="937" d="M143 0v1434h84v-504l-6 -82h4q63 201 279 201q170 0 257 -144.5t87 -392.5t-93 -392.5t-263 -144.5q-96 0 -167 49.5t-100 135.5h-4q6 -37 6 -84v-76h-84zM225 510q0 -197 61.5 -326t202.5 -129q127 0 199 120t72 337q0 215 -67.5 336t-196.5 121q-271 0 -271 -459z" />
<glyph unicode="c" horiz-adv-x="864" d="M88 510q0 242 120 390.5t312 148.5q170 0 260 -105l-39 -76q-94 100 -223 101q-154 0 -248 -126t-94 -333q0 -205 94.5 -330t247.5 -125q147 0 248 117l31 -78q-39 -51 -119 -85t-170 -34q-182 0 -301 147.5t-119 387.5z" />
<glyph unicode="d" horiz-adv-x="937" d="M92 512q0 248 93.5 392.5t260.5 144.5q197 0 269 -185h4q-6 37 -6 84v486h84v-1434h-84v94l6 82h-4q-68 -201 -279 -201q-170 0 -257 144.5t-87 392.5zM180 512q0 -215 67.5 -336t196.5 -121q270 0 271 459q0 125 -22.5 221t-84 165t-157.5 69q-127 0 -199 -120t-72 -337 z" />
<glyph unicode="e" horiz-adv-x="888" d="M90 520q0 244 106.5 386.5t278.5 142.5q115 0 190.5 -68t106.5 -165t31 -218q0 -23 -4 -72h-621q2 -227 90 -348t230 -121q152 0 254 113l28 -72q-45 -53 -122.5 -88t-165.5 -35q-180 0 -291 147.5t-111 397.5zM182 606h533q-6 362 -240 363q-117 0 -195 -93.5 t-98 -269.5z" />
<glyph unicode="f" horiz-adv-x="512" d="M68 940v78h98v47q0 117 26.5 197.5t70.5 116.5t82 50.5t77 14.5q33 0 51 -4v-78q-20 4 -33 4q-188 0 -188 -299v-49h211v-78h-211v-940h-86v940h-98z" />
<glyph unicode="g" horiz-adv-x="927" d="M92 528q0 240 92 380.5t250 140.5q96 0 167 -50.5t99 -138.5h2v39v125h82v-1018q0 -221 -105.5 -328.5t-264.5 -107.5q-129 0 -254 80l37 76q98 -72 213 -72q131 0 210.5 87t79.5 265v107l2 84h-2q-74 -197 -258 -197q-156 0 -253 145.5t-97 382.5zM180 528.5 q0 -206.5 75 -325.5t200 -119q111 0 179 105.5t68 338.5q0 436 -264 437q-123 0 -190.5 -115t-67.5 -321.5z" />
<glyph unicode="h" horiz-adv-x="950" d="M143 0v1434h84v-527l-6 -65h4q27 76 110 141.5t218 65.5q260 0 260 -320v-729h-84v707q0 55 -5 94t-22.5 81t-57.5 64.5t-101 22.5q-133 0 -224.5 -102.5t-91.5 -241.5v-625h-84z" />
<glyph unicode="i" horiz-adv-x="368" d="M135 1284v150h101v-150h-101zM143 0v1024h84v-1024h-84z" />
<glyph unicode="j" horiz-adv-x="368" d="M-78 -340q12 -4 33 -4q29 0 56.5 10t60 39t52 93.5t19.5 158.5v1067h84v-1065q0 -119 -27.5 -201t-73.5 -117.5t-84 -48t-77 -12.5q-23 0 -43 4v76zM133 1284v150h98v-150h-98z" />
<glyph unicode="k" horiz-adv-x="780" d="M143 0v1434h84v-816h135l254 406h99l-283 -440v-4l307 -580h-96l-285 543h-131v-543h-84z" />
<glyph unicode="l" horiz-adv-x="397" d="M145 207v1227h84v-1201q0 -163 92 -163h1q18 0 24 2v-76q-16 -4 -33 -4q-27 0 -51 7t-53 27.5t-46.5 66.5t-17.5 114z" />
<glyph unicode="m" horiz-adv-x="1470" d="M143 0v1024h84v-119l-6 -65h4q27 76 102.5 142.5t209.5 66.5q197 0 235 -207h6q27 74 103.5 140.5t208.5 66.5q244 0 243 -320v-729h-84v707q0 53 -6 94t-22.5 82t-52 63.5t-91.5 22.5q-125 0 -211 -101.5t-86 -244.5v-623h-84v707q0 117 -34.5 189.5t-137.5 72.5 q-125 0 -211 -101.5t-86 -244.5v-623h-84z" />
<glyph unicode="n" horiz-adv-x="950" d="M143 0v1024h84v-119l-6 -65h4q27 76 110 142.5t218 66.5q260 0 260 -320v-729h-84v707q0 55 -5 94t-22.5 81t-57.5 64.5t-101 22.5q-133 0 -224.5 -102.5t-91.5 -243.5v-623h-84z" />
<glyph unicode="o" horiz-adv-x="1001" d="M88 516.5q0 231.5 113.5 382t298.5 150.5q186 0 299.5 -152t113.5 -381q0 -231 -114.5 -386t-298.5 -155q-182 0 -297 155t-115 386.5zM176 518q0 -201 88 -332t236 -131q150 0 237.5 131t87.5 332q0 199 -88 325t-237 126q-147 0 -235.5 -126t-88.5 -325z" />
<glyph unicode="p" horiz-adv-x="937" d="M143 -410v1434h84v-94l-6 -82h4q66 201 279 201q170 0 257 -144.5t87 -392.5t-93 -392.5t-263 -144.5q-94 0 -167 49.5t-100 135.5h-4q6 -37 6 -84v-486h-84zM225 510q0 -125 21.5 -221t83 -165t159.5 -69q127 0 199 120t72 337q0 215 -67.5 336t-196.5 121 q-271 0 -271 -459z" />
<glyph unicode="q" horiz-adv-x="937" d="M92 512q0 248 93.5 392.5t260.5 144.5q199 0 269 -185h4q-6 37 -6 84v76h84v-1434h-84v506l6 80h-4q-31 -96 -106 -148.5t-173 -52.5q-170 0 -257 144.5t-87 392.5zM180 512q0 -215 67.5 -336t196.5 -121q270 0 271 459q0 125 -22.5 221t-84 165t-157.5 69 q-127 0 -199 -120t-72 -337z" />
<glyph unicode="r" horiz-adv-x="565" d="M143 0v1024h84v-160l-4 -84h4q27 106 96.5 179t153.5 73q23 0 43 -6v-84q-12 4 -37 4q-84 0 -145.5 -84t-86 -191.5t-24.5 -215.5v-455h-84z" />
<glyph unicode="s" horiz-adv-x="698" d="M70 86l39 70q106 -100 227 -101q90 0 144.5 51.5t54.5 141.5q0 63 -32 110.5t-80 73t-104.5 57t-104.5 61.5t-80 88t-32 138q0 123 74 198t205 75q125 0 211 -74l-35 -74q-82 68 -182 68q-82 0 -133.5 -48.5t-51.5 -136.5q0 -78 44.5 -130t108 -83.5t128 -65.5 t108.5 -95.5t44 -153.5q0 -121 -74 -201t-215 -80q-158 0 -264 111z" />
<glyph unicode="t" horiz-adv-x="495" d="M51 940v78h105v291h84v-291h202v-78h-202v-563q0 -94 19.5 -160.5t51 -95.5t59 -40t56.5 -11q23 0 35 4v-78q-12 -4 -43 -4q-41 0 -79 12t-83 48t-72.5 118t-27.5 201v569h-105z" />
<glyph unicode="u" horiz-adv-x="940" d="M135 295v729h84v-707q0 -55 5 -94t22.5 -81t57.5 -64.5t102 -22.5q127 0 218 101.5t91 242.5v625h84v-1024h-84v119l6 65h-4q-29 -76 -111 -142.5t-211 -66.5q-260 1 -260 320z" />
<glyph unicode="v" horiz-adv-x="813" d="M57 1024h86l238 -803l27 -110h2q10 61 24 110l238 803h86l-307 -1024h-89z" />
<glyph unicode="w" horiz-adv-x="1318" d="M59 1024h91l206 -803l25 -110h2q10 61 23 110l206 799h93l208 -799l23 -110h4q10 59 25 110l206 803h86l-272 -1024h-92l-209 795l-25 110h-2q-10 -61 -24 -110l-205 -795h-94z" />
<glyph unicode="x" horiz-adv-x="755" d="M43 0l279 541l-252 483h92l190 -373l25 -55h2q10 29 24 55l191 373h92l-252 -483l279 -541h-95l-215 424l-24 57h-2q-10 -27 -25 -57l-215 -424h-94z" />
<glyph unicode="y" horiz-adv-x="839" d="M41 -379l33 74q41 -43 102 -43q92 0 152 184l51 170l-330 1018h90l254 -817l23 -101h4l26 101l250 817h90l-391 -1237q-31 -98 -85 -157.5t-132 -59.5q-37 0 -71.5 12t-49.5 25z" />
<glyph unicode="z" horiz-adv-x="788" d="M66 0v70l479 780l61 94v4q-27 -4 -78 -4h-442v80h619v-70l-480 -780l-65 -94v-4q29 4 84 4h479v-80h-657z" />
<glyph unicode="{" horiz-adv-x="532" d="M78 619v78q133 41 133 246v165q0 121 25.5 204t66.5 116t70.5 44t60.5 11h21v-78h-13q-20 0 -40.5 -9t-47 -34.5t-43 -91t-16.5 -160.5v-190q0 -184 -127 -260v-4q63 -31 95 -103.5t32 -156.5v-217q0 -94 16.5 -160t43 -91.5t47 -34.5t40.5 -9h13v-78q-8 -2 -21 -2 q-31 0 -60.5 11t-70.5 44t-66.5 116t-25.5 206v192q0 207 -133 246z" />
<glyph unicode="|" horiz-adv-x="389" d="M154 -317v1925h82v-1925h-82z" />
<glyph unicode="}" horiz-adv-x="532" d="M80 -117h12q14 0 29.5 4t38 21.5t39 47.5t29 87t12.5 135v217q0 195 125 260v4q-125 70 -125 261v190q0 78 -12.5 135.5t-29 87t-39 47t-38 21.5t-29.5 4h-12v78h20q29 0 58.5 -11.5t70.5 -44t67 -115.5t26 -204v-166q0 -207 135 -246v-78q-66 -16 -100.5 -86.5 t-34.5 -158.5v-193q0 -123 -26 -206t-67 -115.5t-70.5 -44t-58.5 -11.5l-20 2v78z" />
<glyph unicode="~" horiz-adv-x="952" d="M127 436q0 154 53 224.5t144 70.5q61 0 107 -36t68.5 -78t57.5 -77.5t78 -35.5q47 0 74.5 43t35 86t7.5 90h73q0 -295 -196 -295q-61 0 -107.5 36t-69 78t-57.5 77.5t-76 35.5q-47 0 -75.5 -43t-35.5 -86t-7 -90h-74z" />
<glyph unicode="&#xa1;" horiz-adv-x="380" d="M140 903v121h100v-121h-100zM148 -410l2 1075h82l2 -1075h-86z" />
<glyph unicode="&#xa2;" horiz-adv-x="882" d="M90 716.5q0 229.5 90 391.5t240 180v170h78v-170q182 -23 278 -239l-78 -37q-80 193 -233 192q-135 0 -211 -138t-76 -349t76 -349.5t211 -138.5q154 0 233 193l78 -35q-96 -223 -278 -242v-172h-78v172q-150 18 -240 180t-90 391.5z" />
<glyph unicode="&#xa3;" horiz-adv-x="882" d="M76 684v80h106v332q0 162 86 262t232 100q137 0 233 -78l-45 -73q-86 68 -196 67q-109 0 -165.5 -82t-56.5 -205v-323h305v-80h-305v-604h543v-80h-731v82h100v602h-106z" />
<glyph unicode="&#xa5;" horiz-adv-x="882" d="M29 1434h98l250 -566l65 -159h2q33 88 64 159l250 566h98l-285 -631h168v-80h-207l-45 -100v-88h252v-80h-252v-455h-86v455h-258v80h258v88l-47 100h-211v80h170z" />
<glyph unicode="&#xa7;" horiz-adv-x="636" d="M104 -74l37 66q53 -37 125 -37q92 0 132 69.5t40 165.5q0 27 -2 41l-106 973h80l106 -971q2 -16 2 -47q0 -127 -64.5 -220t-185.5 -93q-98 0 -164 53zM117 1147q0 125 64.5 218t187.5 93q98 0 161 -53l-36 -66q-51 37 -125 37q-90 0 -130 -69.5t-40 -165.5q0 -29 2 -41 l104 -973h-78l-106 971q-4 33 -4 49z" />
<glyph unicode="&#xa8;" horiz-adv-x="796" d="M244 1614v149h84v-149h-84zM471 1614v149h82v-149h-82z" />
<glyph unicode="&#xa9;" horiz-adv-x="1366" d="M109 716.5q0 325.5 158.5 533.5t418.5 208q264 0 417.5 -207t153.5 -534q0 -330 -153.5 -536t-417.5 -206q-262 0 -419.5 208t-157.5 533.5zM199 717q0 -293 132 -476.5t355 -183.5q227 0 354 182.5t127 477.5t-127 477t-354 182q-223 0 -355 -183t-132 -476zM373 715 q0 176 83 304t236 128q80 0 151.5 -43t102.5 -117l-61 -45q-18 55 -73.5 88t-117.5 33q-111 0 -172 -102.5t-61 -243.5q0 -139 60.5 -242.5t172.5 -103.5q61 0 114.5 31.5t76.5 89.5l61 -46q-29 -72 -100.5 -115.5t-153.5 -43.5q-154 0 -236.5 126t-82.5 302z" />
<glyph unicode="&#xaa;" horiz-adv-x="684" d="M135 539v75h410v-75h-410zM139 973q0 227 303 227h21v8q0 172 -115 172q-63 0 -139 -47l-35 62q74 59 178 59q188 0 189 -246v-413h-76v104h-4q-50 -117 -148 -117q-72 0 -123 49.5t-51 141.5zM217 981q0 -51 27.5 -88t72.5 -37q66 0 106 78t40 172v22h-19 q-227 0 -227 -147z" />
<glyph unicode="&#xab;" horiz-adv-x="813" d="M92 578l258 421h99l-261 -421l261 -420h-99zM358 578l258 421h97l-258 -421l258 -420h-97z" />
<glyph unicode="&#xac;" horiz-adv-x="1011" d="M147 702v82h727v-448h-79v366h-648z" />
<glyph unicode="&#xad;" horiz-adv-x="694" d="M127 539v82h440v-82h-440z" />
<glyph unicode="&#xae;" horiz-adv-x="1366" d="M109 716.5q0 325.5 158.5 533.5t418.5 208q264 0 417.5 -207t153.5 -534q0 -330 -153.5 -536t-417.5 -206q-262 0 -419.5 208t-157.5 533.5zM199 717q0 -293 132 -476.5t355 -183.5q227 0 354 182.5t127 477.5t-127 477t-354 182q-223 0 -355 -183t-132 -476zM492 307 v819h225q86 0 139 -65.5t53 -171.5q0 -88 -35.5 -145.5t-93.5 -73.5v-4q8 -10 21 -45l123 -314h-97l-129 342h-118v-342h-88zM580 727h125q53 0 83.5 43t30.5 119q0 74 -30.5 114.5t-83.5 40.5h-125v-317z" />
<glyph unicode="&#xaf;" horiz-adv-x="796" d="M209 1610v82h381v-82h-381z" />
<glyph unicode="&#xb0;" horiz-adv-x="636" d="M104 1186q0 115 58.5 191.5t155 76.5t154.5 -77t58 -191q0 -113 -58 -189.5t-154.5 -76.5t-155 76.5t-58.5 189.5zM184 1186q0 -82 34 -134.5t99.5 -52.5t99.5 52.5t34 134.5t-34 135t-99.5 53t-99.5 -53t-34 -135z" />
<glyph unicode="&#xb1;" horiz-adv-x="964" d="M72 541v80h368v538h86v-538h369v-80h-369v-541h-86v541h-368zM100 -233h762v-80h-762v80z" />
<glyph unicode="&#xb2;" horiz-adv-x="595" d="M80 920q0 84 36 152.5t87 118.5t102 97t87 109.5t36 136.5q0 84 -44 127t-112 43q-96 0 -141 -84l-51 39q20 49 74.5 83t126.5 34q98 0 159.5 -64.5t61.5 -175.5q0 -80 -36 -149.5t-86 -118.5t-102.5 -97.5t-89 -107.5t-38.5 -127h362v-70h-428q-4 33 -4 54z" />
<glyph unicode="&#xb3;" horiz-adv-x="595" d="M66 928l38 58q51 -70 148 -70q80 0 133 53t53 148q0 92 -52 143t-146 51h-62l-14 60l201 276l32 37v4q-20 -2 -55 -2h-244v70h400v-48l-246 -329q115 -4 188.5 -67.5t73.5 -186.5q0 -127 -73.5 -203t-184.5 -76q-113 0 -190 82z" />
<glyph unicode="&#xb4;" horiz-adv-x="800" d="M295 1536l106 227h105l-131 -227h-80z" />
<glyph unicode="&#xb6;" horiz-adv-x="888" d="M72 964.5q0 198.5 107.5 334t269.5 135.5h354v-80h-271v-1456h-81v596q-164 0 -271.5 136t-107.5 334.5zM625 -102v1325h80v-1325h-80z" />
<glyph unicode="&#xb7;" horiz-adv-x="354" d="M127 526v121h100v-121h-100z" />
<glyph unicode="&#xb8;" horiz-adv-x="796" d="M289 -334q20 -10 65 -10q82 0 82 78q0 37 -24.5 58.5t-67.5 21.5l-22 -2l40 225l56 -10v-17l-17 -133q49 -10 82 -48t33 -91q0 -78 -45 -117t-109 -39q-41 0 -73 8v76z" />
<glyph unicode="&#xb9;" horiz-adv-x="595" d="M127 866v70h149v673l3 45h-5q0 -16 -30 -55l-68 -86l-49 45l152 197h71v-819h144v-70h-367z" />
<glyph unicode="&#xba;" horiz-adv-x="784" d="M131 1124q0 141 71.5 236.5t186.5 95.5q117 0 188.5 -94t71.5 -238q0 -147 -71.5 -243.5t-186.5 -96.5q-117 0 -188.5 96.5t-71.5 243.5zM158 539v75h471v-75h-471zM209 1124q0 -117 49 -191.5t133 -74.5q82 0 132 75t50 191q0 113 -49 185.5t-133 72.5t-133 -72.5 t-49 -185.5z" />
<glyph unicode="&#xbb;" horiz-adv-x="813" d="M100 158l258 420l-258 421h99l260 -421l-260 -420h-99zM367 158l260 420l-260 421h98l258 -421l-258 -420h-98z" />
<glyph unicode="&#xbc;" horiz-adv-x="1462" d="M104 545v70h149v673l3 45h-5q0 -16 -30 -55l-68 -86l-49 45l152 197h71v-819h144v-70h-367zM404 0l530 1434h80l-528 -1434h-82zM875 248v54l344 587h65v-571h105v-70h-105v-248h-73v248h-336zM963 318h248v317l4 121h-4q-23 -53 -49 -100l-199 -334v-4z" />
<glyph unicode="&#xbd;" horiz-adv-x="1445" d="M104 545v70h149v673l3 45h-5q0 -16 -30 -55l-68 -86l-49 45l152 197h71v-819h144v-70h-367zM404 0l530 1434h80l-528 -1434h-82zM920 54q0 84 36 152.5t87 118.5t102 97t87 109.5t36 136.5q0 84 -44 127t-112 43q-96 0 -141 -84l-51 39q20 49 74.5 83t126.5 34 q98 0 159.5 -64.5t61.5 -175.5q0 -80 -36 -149.5t-86 -118.5t-102.5 -97.5t-89 -107.5t-38.5 -127h362v-70h-428q-4 33 -4 54z" />
<glyph unicode="&#xbe;" horiz-adv-x="1497" d="M89 606l38 58q51 -70 148 -70q80 0 133 53t53 148q0 92 -52 143t-146 51h-62l-14 60l201 276l32 37v4q-20 -2 -55 -2h-244v70h400v-48l-246 -329q115 -4 188.5 -67.5t73.5 -186.5q0 -127 -73.5 -203t-184.5 -76q-113 0 -190 82zM439 0l530 1434h80l-528 -1434h-82z M909 248v54l344 587h65v-571h105v-70h-105v-248h-73v248h-336zM997 318h248v317l4 121h-4q-23 -53 -49 -100l-199 -334v-4z" />
<glyph unicode="&#xbf;" horiz-adv-x="686" d="M72 -76q0 88 29.5 160.5t71.5 123t84 100.5t72 120.5t30 158.5v78h82v-90q0 -92 -29 -167t-70 -127t-82 -101t-69.5 -112.5t-28.5 -137.5q0 -119 62.5 -200t175.5 -81q106 0 182 60l37 -68q-82 -76 -226 -76q-152 0 -236.5 99.5t-84.5 259.5zM348 903v121h103v-121h-103z " />
<glyph unicode="&#xc0;" horiz-adv-x="995" d="M43 0l408 1434h92l409 -1434h-90l-141 498h-449l-139 -498h-90zM295 578h405l-161 581l-39 172h-4q-20 -109 -39 -172zM328 1763h105l108 -227h-84z" />
<glyph unicode="&#xc1;" horiz-adv-x="995" d="M43 0l408 1434h92l409 -1434h-90l-141 498h-449l-139 -498h-90zM295 578h405l-161 581l-39 172h-4q-20 -109 -39 -172zM453 1536l106 227h105l-131 -227h-80z" />
<glyph unicode="&#xc2;" horiz-adv-x="995" d="M43 0l408 1434h92l409 -1434h-90l-141 498h-449l-139 -498h-90zM295 578h405l-161 581l-39 172h-4q-20 -109 -39 -172zM319 1536l129 227h96l132 -227h-93l-86 164h-4l-86 -164h-88z" />
<glyph unicode="&#xc3;" horiz-adv-x="995" d="M43 0l408 1434h92l409 -1434h-90l-141 498h-449l-139 -498h-90zM262 1542q0 221 137 221q37 0 66.5 -23.5t46 -52t40 -52t46.5 -23.5q63 0 63 145h72q0 -221 -135 -221q-45 0 -80 38t-62.5 76t-58.5 38q-61 0 -61 -146h-74zM295 578h405l-161 581l-39 172h-4 q-20 -109 -39 -172z" />
<glyph unicode="&#xc4;" horiz-adv-x="995" d="M43 0l408 1434h92l409 -1434h-90l-141 498h-449l-139 -498h-90zM295 578h405l-161 581l-39 172h-4q-20 -109 -39 -172zM342 1614v149h84v-149h-84zM569 1614v149h82v-149h-82z" />
<glyph unicode="&#xc5;" horiz-adv-x="995" d="M43 0l408 1434h92l409 -1434h-90l-141 498h-449l-139 -498h-90zM295 578h405l-161 581l-39 172h-4q-20 -109 -39 -172zM381 1652.5q0 59.5 31.5 98.5t83 39t84 -39t32.5 -98.5t-32.5 -98t-84 -38.5t-83 38.5t-31.5 98zM444 1653q0 -70 51.5 -70t51.5 70q0 72 -51.5 71.5 t-51.5 -71.5z" />
<glyph unicode="&#xc6;" horiz-adv-x="1323" d="M41 0l453 1434h731v-80h-527v-590h432v-80h-432v-604h555v-80h-641v684h-268l-217 -684h-86zM371 764h241v588h-57z" />
<glyph unicode="&#xc7;" horiz-adv-x="1116" d="M96 727q0 322 161 526.5t435 204.5q205 0 334 -117l-39 -75q-57 49 -140 79.5t-163 30.5q-229 0 -363.5 -182t-134.5 -467q0 -287 135.5 -478.5t358.5 -191.5q195 0 338 121l33 -74q-127 -121 -346 -129l-13 -98q49 -10 82 -48t33 -91q0 -78 -45 -117t-109 -39 q-41 0 -73 8v76q20 -10 65 -10q82 0 82 78q0 37 -24.5 58.5t-67.5 21.5l-23 -2l29 165q-248 18 -396.5 230.5t-148.5 519.5z" />
<glyph unicode="&#xc8;" horiz-adv-x="876" d="M168 0v1434h612v-80h-526v-590h432v-80h-432v-604h555v-80h-641zM330 1763h105l108 -227h-84z" />
<glyph unicode="&#xc9;" horiz-adv-x="876" d="M168 0v1434h612v-80h-526v-590h432v-80h-432v-604h555v-80h-641zM455 1536l106 227h105l-131 -227h-80z" />
<glyph unicode="&#xca;" horiz-adv-x="876" d="M168 0v1434h612v-80h-526v-590h432v-80h-432v-604h555v-80h-641zM323 1536l129 227h96l132 -227h-93l-86 164h-4l-86 -164h-88z" />
<glyph unicode="&#xcb;" horiz-adv-x="876" d="M168 0v1434h612v-80h-526v-590h432v-80h-432v-604h555v-80h-641zM346 1614v149h84v-149h-84zM573 1614v149h82v-149h-82z" />
<glyph unicode="&#xcc;" horiz-adv-x="419" d="M41 1763h105l108 -227h-84zM168 0v1434h86v-1434h-86z" />
<glyph unicode="&#xcd;" horiz-adv-x="419" d="M168 0v1434h86v-1434h-86zM168 1536l106 227h105l-131 -227h-80z" />
<glyph unicode="&#xce;" horiz-adv-x="419" d="M35 1536l129 227h96l132 -227h-93l-86 164h-4l-86 -164h-88zM168 0v1434h86v-1434h-86z" />
<glyph unicode="&#xcf;" horiz-adv-x="419" d="M58 1614v149h84v-149h-84zM168 0v1434h86v-1434h-86zM285 1614v149h82v-149h-82z" />
<glyph unicode="&#xd0;" horiz-adv-x="1169" d="M74 682v82h94v670h350q252 0 402.5 -190.5t150.5 -526.5q0 -338 -150.5 -527.5t-402.5 -189.5h-350v682h-94zM254 82h254q217 0 345 166t128 469q0 301 -128 468t-345 167h-254v-588h276v-82h-276v-600z" />
<glyph unicode="&#xd1;" horiz-adv-x="1189" d="M168 0v1434h84l604 -1106q16 -29 37.5 -73t34.5 -73l12 -28h4q-8 109 -8 180v1100h86v-1434h-84l-608 1114l-80 176h-4q8 -109 8 -180v-1110h-86zM371 1542q0 221 137 221q37 0 66.5 -23.5t46 -52t40 -52t46.5 -23.5q63 0 63 145h72q0 -221 -135 -221q-45 0 -80 38 t-62.5 76t-58.5 38q-61 0 -61 -146h-74z" />
<glyph unicode="&#xd2;" d="M98 727q0 334 161 532.5t398 198.5q242 0 403 -198.5t161 -532.5q0 -342 -161 -547t-403 -205q-238 0 -398.5 205t-160.5 547zM186 727q0 -307 135.5 -488.5t336 -181.5t336.5 181.5t136 488.5q0 301 -136 475t-336.5 174t-336 -174t-135.5 -475zM489 1763h105l108 -227 h-84z" />
<glyph unicode="&#xd3;" d="M98 727q0 334 161 532.5t398 198.5q242 0 403 -198.5t161 -532.5q0 -342 -161 -547t-403 -205q-238 0 -398.5 205t-160.5 547zM186 727q0 -307 135.5 -488.5t336 -181.5t336.5 181.5t136 488.5q0 301 -136 475t-336.5 174t-336 -174t-135.5 -475zM614 1536l106 227h105 l-131 -227h-80z" />
<glyph unicode="&#xd4;" d="M98 727q0 334 161 532.5t398 198.5q242 0 403 -198.5t161 -532.5q0 -342 -161 -547t-403 -205q-238 0 -398.5 205t-160.5 547zM186 727q0 -307 135.5 -488.5t336 -181.5t336.5 181.5t136 488.5q0 301 -136 475t-336.5 174t-336 -174t-135.5 -475zM481 1536l129 227h96 l132 -227h-93l-86 164h-4l-86 -164h-88z" />
<glyph unicode="&#xd5;" d="M98 727q0 334 161 532.5t398 198.5q242 0 403 -198.5t161 -532.5q0 -342 -161 -547t-403 -205q-238 0 -398.5 205t-160.5 547zM186 727q0 -307 135.5 -488.5t336 -181.5t336.5 181.5t136 488.5q0 301 -136 475t-336.5 174t-336 -174t-135.5 -475zM424 1542q0 221 137 221 q37 0 66.5 -23.5t46 -52t40 -52t46.5 -23.5q63 0 63 145h72q0 -221 -135 -221q-45 0 -80 38t-62.5 76t-58.5 38q-61 0 -61 -146h-74z" />
<glyph unicode="&#xd6;" d="M98 727q0 334 161 532.5t398 198.5q242 0 403 -198.5t161 -532.5q0 -342 -161 -547t-403 -205q-238 0 -398.5 205t-160.5 547zM186 727q0 -307 135.5 -488.5t336 -181.5t336.5 181.5t136 488.5q0 301 -136 475t-336.5 174t-336 -174t-135.5 -475zM504 1614v149h84v-149 h-84zM731 1614v149h82v-149h-82z" />
<glyph unicode="&#xd7;" horiz-adv-x="964" d="M72 51l360 527l-360 528l63 53l346 -510l346 510l64 -53l-361 -528l361 -527l-64 -51l-346 506l-346 -506z" />
<glyph unicode="&#xd8;" d="M98 727q0 334 160 532.5t399 198.5q172 0 306 -104l73 129l70 -41l-80 -146q195 -205 195 -569q0 -342 -161 -547t-403 -205q-170 0 -305 107l-69 -125l-72 41l78 143q-191 207 -191 586zM186 727q0 -324 148 -508l588 1059q-115 98 -265 98q-203 0 -337 -174t-134 -475z M391 158q119 -100 266 -101q203 0 338 180.5t135 489.5q0 311 -149 492z" />
<glyph unicode="&#xd9;" horiz-adv-x="1150" d="M158 444v990h86v-983q0 -190 89 -292t242.5 -102t242.5 102.5t89 295.5v979h86v-990q0 -221 -113.5 -345t-301.5 -124q-190 0 -305 124t-115 345zM405 1763h105l108 -227h-84z" />
<glyph unicode="&#xda;" horiz-adv-x="1150" d="M158 444v990h86v-983q0 -190 89 -292t242.5 -102t242.5 102.5t89 295.5v979h86v-990q0 -221 -113.5 -345t-301.5 -124q-190 0 -305 124t-115 345zM533 1536l106 227h105l-131 -227h-80z" />
<glyph unicode="&#xdb;" horiz-adv-x="1150" d="M158 444v990h86v-983q0 -190 89 -292t242.5 -102t242.5 102.5t89 295.5v979h86v-990q0 -221 -113.5 -345t-301.5 -124q-190 0 -305 124t-115 345zM399 1536l129 227h96l132 -227h-93l-86 164h-4l-86 -164h-88z" />
<glyph unicode="&#xdc;" horiz-adv-x="1150" d="M158 444v990h86v-983q0 -190 89 -292t242.5 -102t242.5 102.5t89 295.5v979h86v-990q0 -221 -113.5 -345t-301.5 -124q-190 0 -305 124t-115 345zM422 1614v149h84v-149h-84zM649 1614v149h82v-149h-82z" />
<glyph unicode="&#xdd;" horiz-adv-x="909" d="M37 1434h96l256 -566l64 -157h4q35 88 67 157l254 566h94l-374 -811v-623h-86v623zM408 1536l106 227h105l-131 -227h-80z" />
<glyph unicode="&#xde;" horiz-adv-x="948" d="M168 0v1434h86v-269h233q174 0 288 -113.5t114 -304t-113.5 -306t-288.5 -115.5h-233v-326h-86zM254 406h225q143 0 231.5 92t88.5 249.5t-88 247.5t-232 90h-225v-679z" />
<glyph unicode="&#xdf;" horiz-adv-x="913" d="M143 0v1090q0 180 90.5 274t219.5 94q119 0 188.5 -81t69.5 -208q0 -88 -46.5 -165.5t-91.5 -138t-45 -107.5q0 -45 34 -87t81 -81t94 -83t81 -109.5t34 -145.5q0 -113 -67.5 -189.5t-196.5 -76.5t-223 71v95q41 -35 103 -60.5t114 -25.5q84 0 133 49t49 135 q0 68 -34 124t-81 95l-94 78t-81 91t-34 116q0 86 92.5 208.5t92.5 208.5q0 88 -46.5 147.5t-127.5 59.5q-94 0 -159 -75.5t-65 -219.5v-1083h-84z" />
<glyph unicode="&#xe0;" horiz-adv-x="823" d="M70 283q0 80 24.5 141t69.5 97t90 58.5t107.5 32t98.5 11.5t85 2h59v34q0 172 -52 241t-153 69q-131 0 -233 -76l-31 70q113 86 264 86q289 0 289 -387v-662h-80v100l2 93h-4q-90 -211 -270 -211q-104 0 -185 75.5t-81 225.5zM158 289q0 -100 53 -165t131 -65 q121 0 191.5 128t70.5 268v90h-57q-43 0 -74 -2t-82 -8.5t-87 -23.5t-72.5 -44t-55 -73t-18.5 -105zM235 1433h105l108 -227h-84z" />
<glyph unicode="&#xe1;" horiz-adv-x="823" d="M70 283q0 80 24.5 141t69.5 97t90 58.5t107.5 32t98.5 11.5t85 2h59v34q0 172 -52 241t-153 69q-131 0 -233 -76l-31 70q113 86 264 86q289 0 289 -387v-662h-80v100l2 93h-4q-90 -211 -270 -211q-104 0 -185 75.5t-81 225.5zM158 289q0 -100 53 -165t131 -65 q121 0 191.5 128t70.5 268v90h-57q-43 0 -74 -2t-82 -8.5t-87 -23.5t-72.5 -44t-55 -73t-18.5 -105zM361 1206l106 227h105l-131 -227h-80z" />
<glyph unicode="&#xe2;" horiz-adv-x="823" d="M70 283q0 80 24.5 141t69.5 97t90 58.5t107.5 32t98.5 11.5t85 2h59v34q0 172 -52 241t-153 69q-131 0 -233 -76l-31 70q113 86 264 86q289 0 289 -387v-662h-80v100l2 93h-4q-90 -211 -270 -211q-104 0 -185 75.5t-81 225.5zM158 289q0 -100 53 -165t131 -65 q121 0 191.5 128t70.5 268v90h-57q-43 0 -74 -2t-82 -8.5t-87 -23.5t-72.5 -44t-55 -73t-18.5 -105zM227 1206l129 227h96l132 -227h-93l-86 164h-4l-86 -164h-88z" />
<glyph unicode="&#xe3;" horiz-adv-x="823" d="M70 283q0 80 24.5 141t69.5 97t90 58.5t107.5 32t98.5 11.5t85 2h59v34q0 172 -52 241t-153 69q-131 0 -233 -76l-31 70q113 86 264 86q289 0 289 -387v-662h-80v100l2 93h-4q-90 -211 -270 -211q-104 0 -185 75.5t-81 225.5zM158 289q0 -100 53 -165t131 -65 q121 0 191.5 128t70.5 268v90h-57q-43 0 -74 -2t-82 -8.5t-87 -23.5t-72.5 -44t-55 -73t-18.5 -105zM170 1212q0 221 137 221q37 0 66.5 -23.5t46 -52t40 -52t46.5 -23.5q63 0 63 145h72q0 -221 -135 -221q-45 0 -80 38t-62.5 76t-58.5 38q-61 0 -61 -146h-74z" />
<glyph unicode="&#xe4;" horiz-adv-x="823" d="M70 283q0 80 24.5 141t69.5 97t90 58.5t107.5 32t98.5 11.5t85 2h59v34q0 172 -52 241t-153 69q-131 0 -233 -76l-31 70q113 86 264 86q289 0 289 -387v-662h-80v100l2 93h-4q-90 -211 -270 -211q-104 0 -185 75.5t-81 225.5zM158 289q0 -100 53 -165t131 -65 q121 0 191.5 128t70.5 268v90h-57q-43 0 -74 -2t-82 -8.5t-87 -23.5t-72.5 -44t-55 -73t-18.5 -105zM250 1284v149h84v-149h-84zM477 1284v149h82v-149h-82z" />
<glyph unicode="&#xe5;" horiz-adv-x="823" d="M70 283q0 80 24.5 141t69.5 97t90 58.5t107.5 32t98.5 11.5t85 2h59v34q0 172 -52 241t-153 69q-131 0 -233 -76l-31 70q113 86 264 86q289 0 289 -387v-662h-80v100l2 93h-4q-90 -211 -270 -211q-104 0 -185 75.5t-81 225.5zM158 289q0 -100 53 -165t131 -65 q121 0 191.5 128t70.5 268v90h-57q-43 0 -74 -2t-82 -8.5t-87 -23.5t-72.5 -44t-55 -73t-18.5 -105zM289 1322.5q0 59.5 31.5 98.5t83 39t84 -39t32.5 -98.5t-32.5 -98t-84 -38.5t-83 38.5t-31.5 98zM352 1323q0 -70 51.5 -70t51.5 70q0 72 -51.5 71.5t-51.5 -71.5z" />
<glyph unicode="&#xe6;" horiz-adv-x="1400" d="M70 283q0 332 477 331h57v45q0 170 -51 240t-150 70q-137 0 -237 -76l-31 70q113 86 268 86q207 0 261 -205h4q106 205 317 205q168 0 249 -129t81 -314q0 -51 -4 -71h-617q2 -231 90 -354.5t226 -123.5q141 0 254 113l28 -72q-106 -123 -288 -123q-254 0 -357 269h-4 q-33 -117 -113.5 -193t-195.5 -76q-104 0 -184 77t-80 231zM158 289q0 -104 52 -170t132 -66q86 0 148.5 70t88 158t25.5 174v80h-47q-43 0 -72.5 -2.5t-84 -8.5t-91.5 -21.5t-74.5 -41t-57 -70.5t-19.5 -102zM696 614h531q-8 354 -240 355q-113 0 -192 -92.5t-99 -262.5z " />
<glyph unicode="&#xe7;" horiz-adv-x="864" d="M90 510q0 242 120 390.5t312 148.5q170 0 260 -105l-39 -76q-94 100 -223 101q-154 0 -248 -126t-94 -333q0 -205 94.5 -330t247.5 -125q147 0 248 117l31 -78q-37 -47 -109 -79.5t-153 -37.5l-13 -100q49 -10 82 -48t33 -91q0 -78 -45 -117t-109 -39q-41 0 -73 8v76 q20 -10 65 -10q82 0 82 78q0 37 -24.5 58.5t-67.5 21.5l-23 -2l29 165q-170 16 -276.5 161t-106.5 372z" />
<glyph unicode="&#xe8;" horiz-adv-x="888" d="M90 520q0 244 106.5 386.5t278.5 142.5q115 0 190.5 -68t106.5 -165t31 -218q0 -23 -4 -72h-621q2 -227 90 -348t230 -121q152 0 254 113l28 -72q-45 -53 -122.5 -88t-165.5 -35q-180 0 -291 147.5t-111 397.5zM182 606h533q-6 362 -240 363q-117 0 -195 -93.5 t-98 -269.5zM305 1433h105l108 -227h-84z" />
<glyph unicode="&#xe9;" horiz-adv-x="888" d="M90 520q0 244 106.5 386.5t278.5 142.5q115 0 190.5 -68t106.5 -165t31 -218q0 -23 -4 -72h-621q2 -227 90 -348t230 -121q152 0 254 113l28 -72q-45 -53 -122.5 -88t-165.5 -35q-180 0 -291 147.5t-111 397.5zM182 606h533q-6 362 -240 363q-117 0 -195 -93.5 t-98 -269.5zM430 1206l106 227h105l-131 -227h-80z" />
<glyph unicode="&#xea;" horiz-adv-x="888" d="M90 520q0 244 106.5 386.5t278.5 142.5q115 0 190.5 -68t106.5 -165t31 -218q0 -23 -4 -72h-621q2 -227 90 -348t230 -121q152 0 254 113l28 -72q-45 -53 -122.5 -88t-165.5 -35q-180 0 -291 147.5t-111 397.5zM182 606h533q-6 362 -240 363q-117 0 -195 -93.5 t-98 -269.5zM297 1206l129 227h96l132 -227h-93l-86 164h-4l-86 -164h-88z" />
<glyph unicode="&#xeb;" horiz-adv-x="888" d="M90 520q0 244 106.5 386.5t278.5 142.5q115 0 190.5 -68t106.5 -165t31 -218q0 -23 -4 -72h-621q2 -227 90 -348t230 -121q152 0 254 113l28 -72q-45 -53 -122.5 -88t-165.5 -35q-180 0 -291 147.5t-111 397.5zM182 606h533q-6 362 -240 363q-117 0 -195 -93.5 t-98 -269.5zM320 1284v149h84v-149h-84zM547 1284v149h82v-149h-82z" />
<glyph unicode="&#xec;" horiz-adv-x="368" d="M14 1433h105l108 -227h-84zM143 0v1024h84v-1024h-84z" />
<glyph unicode="&#xed;" horiz-adv-x="368" d="M141 1206l106 227h105l-131 -227h-80zM143 0v1024h84v-1024h-84z" />
<glyph unicode="&#xee;" horiz-adv-x="368" d="M8 1206l129 227h96l132 -227h-93l-86 164h-4l-86 -164h-88zM143 0v1024h84v-1024h-84z" />
<glyph unicode="&#xef;" horiz-adv-x="368" d="M31 1284v149h84v-149h-84zM143 0v1024h84v-1024h-84zM258 1284v149h82v-149h-82z" />
<glyph unicode="&#xf0;" horiz-adv-x="927" d="M90 469q0 199 98.5 344t270.5 145q80 0 143.5 -32.5t87.5 -65.5l25 -31l6 7q-55 207 -215 356l-303 -172l6 90l233 133q-86 70 -243 123l22 78q176 -55 301 -154l230 133l-4 -90l-170 -100q117 -104 186.5 -272t69.5 -375q0 -258 -99.5 -434.5t-279.5 -176.5 q-170 0 -267.5 147.5t-97.5 346.5zM178 471q0 -166 74 -291t201 -125q96 0 165.5 80t98 182.5t28.5 206.5q0 164 -74.5 259.5t-197.5 95.5q-143 0 -219 -121t-76 -287z" />
<glyph unicode="&#xf1;" horiz-adv-x="950" d="M143 0v1024h84v-119l-6 -65h4q27 76 110 142.5t218 66.5q260 0 260 -320v-729h-84v707q0 55 -5 94t-22.5 81t-57.5 64.5t-101 22.5q-133 0 -224.5 -102.5t-91.5 -243.5v-623h-84zM258 1212q0 221 137 221q37 0 66.5 -23.5t46 -52t40 -52t46.5 -23.5q63 0 63 145h72 q0 -221 -135 -221q-45 0 -80 38t-62.5 76t-58.5 38q-61 0 -61 -146h-74z" />
<glyph unicode="&#xf2;" horiz-adv-x="1001" d="M88 516.5q0 231.5 113.5 382t298.5 150.5q186 0 299.5 -152t113.5 -381q0 -231 -114.5 -386t-298.5 -155q-182 0 -297 155t-115 386.5zM176 518q0 -201 88 -332t236 -131q150 0 237.5 131t87.5 332q0 199 -88 325t-237 126q-147 0 -235.5 -126t-88.5 -325zM330 1433h105 l108 -227h-84z" />
<glyph unicode="&#xf3;" horiz-adv-x="1001" d="M88 516.5q0 231.5 113.5 382t298.5 150.5q186 0 299.5 -152t113.5 -381q0 -231 -114.5 -386t-298.5 -155q-182 0 -297 155t-115 386.5zM176 518q0 -201 88 -332t236 -131q150 0 237.5 131t87.5 332q0 199 -88 325t-237 126q-147 0 -235.5 -126t-88.5 -325zM457 1206 l106 227h105l-131 -227h-80z" />
<glyph unicode="&#xf4;" horiz-adv-x="1001" d="M88 516.5q0 231.5 113.5 382t298.5 150.5q186 0 299.5 -152t113.5 -381q0 -231 -114.5 -386t-298.5 -155q-182 0 -297 155t-115 386.5zM176 518q0 -201 88 -332t236 -131q150 0 237.5 131t87.5 332q0 199 -88 325t-237 126q-147 0 -235.5 -126t-88.5 -325zM323 1206 l129 227h96l132 -227h-93l-86 164h-4l-86 -164h-88z" />
<glyph unicode="&#xf5;" horiz-adv-x="1001" d="M88 516.5q0 231.5 113.5 382t298.5 150.5q186 0 299.5 -152t113.5 -381q0 -231 -114.5 -386t-298.5 -155q-182 0 -297 155t-115 386.5zM176 518q0 -201 88 -332t236 -131q150 0 237.5 131t87.5 332q0 199 -88 325t-237 126q-147 0 -235.5 -126t-88.5 -325zM266 1212 q0 221 137 221q37 0 66.5 -23.5t46 -52t40 -52t46.5 -23.5q63 0 63 145h72q0 -221 -135 -221q-45 0 -80 38t-62.5 76t-58.5 38q-61 0 -61 -146h-74z" />
<glyph unicode="&#xf6;" horiz-adv-x="1001" d="M88 516.5q0 231.5 113.5 382t298.5 150.5q186 0 299.5 -152t113.5 -381q0 -231 -114.5 -386t-298.5 -155q-182 0 -297 155t-115 386.5zM176 518q0 -201 88 -332t236 -131q150 0 237.5 131t87.5 332q0 199 -88 325t-237 126q-147 0 -235.5 -126t-88.5 -325zM346 1284v149 h84v-149h-84zM573 1284v149h82v-149h-82z" />
<glyph unicode="&#xf7;" horiz-adv-x="964" d="M102 539v82h760v-82h-760zM432 156v120h100v-120h-100zM432 883v121h100v-121h-100z" />
<glyph unicode="&#xf8;" horiz-adv-x="1001" d="M88 516q0 231 113.5 382t298.5 151q117 0 217 -70l55 98l72 -47l-64 -110q133 -150 133 -404q0 -231 -114.5 -386t-298.5 -155q-119 0 -209 66l-58 -104l-71 45l63 116q-137 154 -137 418zM176 518q0 -215 94 -344l408 731q-76 63 -178 64q-147 0 -235.5 -126t-88.5 -325 zM330 113q72 -57 170 -58q150 0 237.5 131t87.5 332q0 209 -88 326z" />
<glyph unicode="&#xf9;" horiz-adv-x="940" d="M135 295v729h84v-707q0 -55 5 -94t22.5 -81t57.5 -64.5t102 -22.5q127 0 218 101.5t91 242.5v625h84v-1024h-84v119l6 65h-4q-29 -76 -111 -142.5t-211 -66.5q-260 1 -260 320zM291 1433h105l108 -227h-84z" />
<glyph unicode="&#xfa;" horiz-adv-x="940" d="M135 295v729h84v-707q0 -55 5 -94t22.5 -81t57.5 -64.5t102 -22.5q127 0 218 101.5t91 242.5v625h84v-1024h-84v119l6 65h-4q-29 -76 -111 -142.5t-211 -66.5q-260 1 -260 320zM416 1206l106 227h105l-131 -227h-80z" />
<glyph unicode="&#xfb;" horiz-adv-x="940" d="M135 295v729h84v-707q0 -55 5 -94t22.5 -81t57.5 -64.5t102 -22.5q127 0 218 101.5t91 242.5v625h84v-1024h-84v119l6 65h-4q-29 -76 -111 -142.5t-211 -66.5q-260 1 -260 320zM282 1206l129 227h96l132 -227h-93l-86 164h-4l-86 -164h-88z" />
<glyph unicode="&#xfc;" horiz-adv-x="940" d="M135 295v729h84v-707q0 -55 5 -94t22.5 -81t57.5 -64.5t102 -22.5q127 0 218 101.5t91 242.5v625h84v-1024h-84v119l6 65h-4q-29 -76 -111 -142.5t-211 -66.5q-260 1 -260 320zM305 1284v149h84v-149h-84zM532 1284v149h82v-149h-82z" />
<glyph unicode="&#xfd;" horiz-adv-x="839" d="M41 -379l33 74q41 -43 102 -43q92 0 152 184l51 170l-330 1018h90l254 -817l23 -101h4l26 101l250 817h90l-391 -1237q-31 -98 -85 -157.5t-132 -59.5q-37 0 -71.5 12t-49.5 25zM375 1206l106 227h105l-131 -227h-80z" />
<glyph unicode="&#xfe;" horiz-adv-x="937" d="M143 -410v1844h84v-506l-8 -82h4q31 96 103.5 149.5t177.5 53.5q170 0 257 -144.5t87 -392.5t-93 -392.5t-263 -144.5q-94 0 -165 49.5t-104 137.5h-4q8 -37 8 -84v-488h-84zM225 510q0 -125 21.5 -221t83 -165t159.5 -69q127 0 199 120t72 337q0 215 -67.5 336 t-196.5 121q-271 0 -271 -459z" />
<glyph unicode="&#xff;" horiz-adv-x="839" d="M41 -379l33 74q41 -43 102 -43q92 0 152 184l51 170l-330 1018h90l254 -817l23 -101h4l26 101l250 817h90l-391 -1237q-31 -98 -85 -157.5t-132 -59.5q-37 0 -71.5 12t-49.5 25zM264 1284v149h84v-149h-84zM491 1284v149h82v-149h-82z" />
<glyph unicode="&#x152;" horiz-adv-x="1478" d="M96 729q0 334 162 531.5t399 197.5q82 0 148 -24h575v-80h-526v-590h432v-80h-432v-604h557v-80h-608q-74 -25 -146 -25q-238 0 -399.5 206t-161.5 548zM186 729q0 -309 135.5 -490.5t335.5 -181.5q59 0 111 13v1294q-51 12 -111 12q-201 0 -336 -174t-135 -473z" />
<glyph unicode="&#x153;" horiz-adv-x="1628" d="M88 516q0 229 114.5 381t297.5 152q127 0 221 -75t145 -202h4q45 131 134.5 204t209.5 73q168 0 249 -130.5t81 -320.5l-4 -72h-622q2 -225 91 -347t230 -122q145 0 254 113l29 -72q-104 -123 -291 -123q-127 0 -221.5 75t-141.5 212h-4q-49 -131 -143 -209t-221 -78 q-182 0 -297 156t-115 385zM176 520q0 -201 88 -333t236 -132q150 0 237.5 131t87.5 332q0 199 -88 325t-237 126q-147 0 -235.5 -126t-88.5 -323zM922 606h534q-8 362 -242 363q-117 0 -194.5 -93.5t-97.5 -269.5z" />
<glyph unicode="&#x178;" horiz-adv-x="909" d="M37 1434h96l256 -566l64 -157h4q35 88 67 157l254 566h94l-374 -811v-623h-86v623zM299 1614v149h84v-149h-84zM526 1614v149h82v-149h-82z" />
<glyph unicode="&#x2c6;" horiz-adv-x="798" d="M221 1536l129 227h96l132 -227h-93l-86 164h-4l-86 -164h-88z" />
<glyph unicode="&#x2dc;" horiz-adv-x="800" d="M164 1542q0 221 137 221q37 0 66.5 -23.5t46 -52t40 -52t46.5 -23.5q63 0 63 145h72q0 -221 -135 -221q-45 0 -80 38t-62.5 76t-58.5 38q-61 0 -61 -146h-74z" />
<glyph unicode="&#x2000;" horiz-adv-x="895" />
<glyph unicode="&#x2001;" horiz-adv-x="1790" />
<glyph unicode="&#x2002;" horiz-adv-x="895" />
<glyph unicode="&#x2003;" horiz-adv-x="1790" />
<glyph unicode="&#x2004;" horiz-adv-x="596" />
<glyph unicode="&#x2005;" horiz-adv-x="447" />
<glyph unicode="&#x2006;" horiz-adv-x="298" />
<glyph unicode="&#x2007;" horiz-adv-x="298" />
<glyph unicode="&#x2008;" horiz-adv-x="223" />
<glyph unicode="&#x2009;" horiz-adv-x="358" />
<glyph unicode="&#x200a;" horiz-adv-x="99" />
<glyph unicode="&#x2010;" horiz-adv-x="694" d="M127 539v82h440v-82h-440z" />
<glyph unicode="&#x2011;" horiz-adv-x="694" d="M127 539v82h440v-82h-440z" />
<glyph unicode="&#x2012;" horiz-adv-x="694" d="M127 539v82h440v-82h-440z" />
<glyph unicode="&#x2013;" horiz-adv-x="1021" d="M127 539v82h768v-82h-768z" />
<glyph unicode="&#x2014;" horiz-adv-x="1337" d="M127 539v82h1083v-82h-1083z" />
<glyph unicode="&#x2018;" horiz-adv-x="378" d="M119 1139l82 309h69l-57 -309h-94z" />
<glyph unicode="&#x2019;" horiz-adv-x="374" d="M123 1143l57 309h94l-79 -309h-72z" />
<glyph unicode="&#x201a;" horiz-adv-x="407" d="M106 -184l58 309h94l-82 -309h-70z" />
<glyph unicode="&#x201c;" horiz-adv-x="550" d="M119 1139l82 309h71l-59 -309h-94zM291 1139l80 309h71l-57 -309h-94z" />
<glyph unicode="&#x201d;" horiz-adv-x="542" d="M123 1143l57 309h96l-81 -309h-72zM295 1143l57 309h94l-81 -309h-70z" />
<glyph unicode="&#x201e;" horiz-adv-x="579" d="M106 -184l58 309h94l-82 -309h-70zM276 -184l58 309h96l-82 -309h-72z" />
<glyph unicode="&#x2022;" horiz-adv-x="747" d="M158 596q0 115 59 192.5t158 77.5q96 0 154.5 -77.5t58.5 -192.5t-58.5 -192.5t-154.5 -77.5q-98 0 -157.5 77.5t-59.5 192.5z" />
<glyph unicode="&#x2026;" horiz-adv-x="1058" d="M127 0v119h100v-119h-100zM479 0v119h101v-119h-101zM829 0v119h103v-119h-103z" />
<glyph unicode="&#x202f;" horiz-adv-x="358" />
<glyph unicode="&#x2039;" horiz-adv-x="548" d="M92 578l258 421h99l-261 -421l261 -420h-99z" />
<glyph unicode="&#x203a;" horiz-adv-x="548" d="M100 158l258 420l-258 421h99l260 -421l-260 -420h-99z" />
<glyph unicode="&#x205f;" horiz-adv-x="447" />
<glyph unicode="&#x20ac;" horiz-adv-x="882" d="M39 559v80h88q-10 113 6 211h-94v80h104q51 236 192.5 382t336.5 146q66 0 135 -18l-14 -84q-55 18 -125 18q-152 0 -274 -125t-165 -319h504l-10 -80h-506q-12 -106 -2 -211h479l-12 -80h-453q18 -96 50 -179t82.5 -158t128 -119t174.5 -44q74 0 145 25l16 -84 q-70 -25 -157 -25q-205 0 -350.5 163t-182.5 421h-96z" />
<glyph unicode="&#x2122;" horiz-adv-x="1566" d="M117 1356v78h579v-78h-252v-815h-75v815h-252zM748 541l55 893h82l182 -533l23 -82h4q6 41 20 82l182 533h80l56 -893h-76l-43 671l2 58h-4l-191 -561h-61l-191 561h-2q2 -27 0 -58l-41 -671h-77z" />
<glyph unicode="&#x25fc;" horiz-adv-x="1024" d="M0 0v1024h1024v-1024h-1024z" />
</font>
</defs>
</svg>
